<svg xmlns="http://www.w3.org/2000/svg" viewBox="0 0 200 200" width="200" height="200" role="img" aria-label="No product image">
  <rect x="1" y="1" width="198" height="198" rx="30" fill="#F4F1EA" stroke="#E2DDD2" stroke-width="2"></rect>
  <g transform="translate(63 63) scale(3.1)" opacity="0.5">
    <path d="M12.586 2.586 21 11a2 2 0 0 1 0 2.828l-7.172 7.172a2 2 0 0 1-2.828 0L2.586 12.586A2 2 0 0 1 2 11.172V4a2 2 0 0 1 2-2h7.172a2 2 0 0 1 1.414.586Z" fill="none" stroke="#B7B0A2" stroke-width="1.4"></path>
    <circle cx="7.5" cy="7.5" r="1.4" fill="#B7B0A2"></circle>
  </g>
  <text x="100" y="176" text-anchor="middle" font-family="ui-monospace, &#39;IBM Plex Mono&#39;, monospace" font-size="11" letter-spacing="1.5" fill="#A39C8D">NO IMAGE</text>
</svg>